<svg width="10" height="10" viewBox="0 0 10 10" fill="none" xmlns="http://www.w3.org/2000/svg">
<path d="M3.55306 1.724C3.85206 0.849 5.06106 0.8225 5.41556 1.6445L5.44556 1.7245L5.84906 2.9045C5.94154 3.17512 6.09097 3.42276 6.28728 3.63071C6.48359 3.83867 6.72222 4.00211 6.98706 4.11L7.09556 4.1505L8.27556 4.5535C9.15056 4.8525 9.17706 6.0615 8.35556 6.416L8.27556 6.446L7.09556 6.8495C6.82485 6.94191 6.57712 7.09131 6.36907 7.28763C6.16103 7.48394 5.99751 7.7226 5.88956 7.9875L5.84906 8.0955L5.44606 9.276C5.14706 10.151 3.93806 10.1775 3.58406 9.356L3.55306 9.276L3.15006 8.096C3.05765 7.82529 2.90825 7.57755 2.71193 7.36951C2.51562 7.16146 2.27696 6.99795 2.01206 6.89L1.90406 6.8495L0.724064 6.4465C-0.151436 6.1475 -0.177936 4.9385 0.644064 4.5845L0.724064 4.5535L1.90406 4.1505C2.17468 4.05803 2.42232 3.9086 2.63028 3.71229C2.83823 3.51597 3.00167 3.27735 3.10956 3.0125L3.15006 2.9045L3.55306 1.724ZM8.49956 9.03438e-08C8.5931 -1.17986e-07 8.68477 0.0262391 8.76414 0.0757358C8.84351 0.125232 8.90741 0.196001 8.94856 0.28L8.97256 0.3385L9.14756 0.8515L9.66106 1.0265C9.75481 1.05835 9.83698 1.11731 9.89718 1.19591C9.95738 1.27451 9.99288 1.36921 9.9992 1.46801C10.0055 1.56681 9.98237 1.66527 9.93267 1.75089C9.88298 1.83652 9.80898 1.90547 9.72006 1.949L9.66106 1.973L9.14806 2.148L8.97306 2.6615C8.94116 2.75521 8.88216 2.83735 8.80353 2.8975C8.7249 2.95764 8.63018 2.9931 8.53138 2.99936C8.43259 3.00563 8.33415 2.98242 8.24856 2.93269C8.16296 2.88296 8.09405 2.80893 8.05056 2.72L8.02656 2.6615L7.85156 2.1485L7.33806 1.9735C7.24432 1.94165 7.16215 1.88269 7.10195 1.80409C7.04175 1.72549 7.00624 1.63079 6.99993 1.53199C6.99361 1.43319 7.01676 1.33473 7.06645 1.24911C7.11615 1.16348 7.19014 1.09453 7.27906 1.051L7.33806 1.027L7.85106 0.852L8.02606 0.3385C8.05978 0.239713 8.12357 0.153954 8.20848 0.0932494C8.2934 0.0325445 8.39518 -6.26407e-05 8.49956 9.03438e-08Z" fill="url(#paint0_linear_12387_3385)"/>
<defs>
<linearGradient id="paint0_linear_12387_3385" x1="5.02355" y1="0" x2="5.02355" y2="9.95281" gradientUnits="userSpaceOnUse">
<stop offset="0.408654" stop-color="#5C5CE9"/>
<stop offset="0.908654" stop-color="#2D2D7C"/>
</linearGradient>
</defs>
</svg>
