<svg width="99" height="83" viewBox="0 0 99 83" fill="none" xmlns="http://www.w3.org/2000/svg">
<path d="M98 82.5C98.5523 82.5 99.0007 82.0522 98.9937 81.5C98.8476 70.0089 96.1859 58.6698 91.1748 48.2108C86.0184 37.4486 78.495 27.8702 69.1151 20.1256C59.7352 12.381 48.7183 6.6514 36.812 3.32566C25.2304 0.0905877 13.0708 -0.796302 1.11504 0.717708C0.56192 0.787752 0.17865 1.30149 0.262299 1.85272L2.44017 16.205C2.52224 16.7459 3.02362 17.1197 3.5665 17.0523C13.0749 15.8717 22.7406 16.5882 31.9496 19.1605C41.4747 21.8211 50.2882 26.4048 57.7921 32.6005C65.296 38.7961 71.3147 46.4589 75.4399 55.0687C79.4197 63.3752 81.5471 72.3756 81.6921 81.5C81.7008 82.0522 82.1477 82.5 82.7 82.5H98Z" fill="#5C5CE9"/>
</svg>
