<svg width="16" height="17" viewBox="0 0 16 17" fill="none" xmlns="http://www.w3.org/2000/svg">
<path d="M3.1998 12.5C3.1998 13.1627 2.66255 13.7 1.9998 13.7C1.33706 13.7 0.799805 13.1627 0.799805 12.5C0.799805 11.8372 1.33706 11.3 1.9998 11.3C2.66255 11.3 3.1998 11.8372 3.1998 12.5Z" fill="#956FD6" fill-opacity="0.6"/>
<path d="M3.1998 4.49999C3.1998 5.16273 2.66255 5.69999 1.9998 5.69999C1.33706 5.69999 0.799805 5.16273 0.799805 4.49999C0.799805 3.83725 1.33706 3.29999 1.9998 3.29999C2.66255 3.29999 3.1998 3.83725 3.1998 4.49999Z" fill="#956FD6" fill-opacity="0.6"/>
<path fill-rule="evenodd" clip-rule="evenodd" d="M15.1998 13.3H6.3998V11.7H15.1998V13.3Z" fill="#956FD6" fill-opacity="0.6"/>
<path fill-rule="evenodd" clip-rule="evenodd" d="M15.1998 5.29999H6.3998V3.69999H15.1998V5.29999Z" fill="#956FD6" fill-opacity="0.6"/>
</svg>
