<svg width="173" height="83" viewBox="0 0 173 83" fill="none" xmlns="http://www.w3.org/2000/svg">
<path d="M172 82.5C172.552 82.5 173.001 82.0516 172.994 81.4994C172.72 59.9808 163.639 39.3994 147.665 24.1637C131.443 8.69194 109.441 1.65192e-06 86.5 0C63.5588 -1.65192e-06 41.5572 8.69194 25.3353 24.1637C9.36082 39.3994 0.279682 59.9807 0.00635438 81.4994C-0.000660125 82.0516 0.447715 82.5 1 82.5H3.28349C3.83577 82.5 4.28279 82.0516 4.29017 81.4994C4.56325 61.0643 13.193 41.5221 28.3642 27.0525C43.7827 12.3469 64.6948 4.0854 86.5 4.0854C108.305 4.0854 129.217 12.3469 144.636 27.0525C159.807 41.5221 168.437 61.0643 168.71 81.4994C168.717 82.0516 169.164 82.5 169.717 82.5H172Z" fill="#956FD6"/>
</svg>
